PathFileType	4	(X/Y/Z)	D:\TRACE\spot_10-12-23\spot_body_motion_2_5-platform.trc
DataRate	CameraRate	NumFrames	NumMarkers	Units	OrigDataRate	OrigDataStartFrame	OrigNumFrames
100.00	100.00	      48	5	mm	100.00	2626	      7000
Frame#	Time	Left_Front			Right_Front			Left_Aft			Right_Aft			Post			
		X1	Y1	Z1	X2	Y2	Z2	X3	Y3	Z3	X4	Y4	Z4	X5	Y5	Z5	

2626	26.250	-819.34991	-55.62541	-653.32739	752.81921	-50.29427	-646.64349	-736.73053	46.57849	480.01865	680.47559	58.74850	565.72888	-36.22877	649.82257	-1040.93323	
2627	26.260	-818.89325	-55.43171	-653.38373	753.62598	-50.37694	-646.69977	-736.08191	46.57207	479.99567	681.24933	58.83571	565.62854	-35.43995	649.69977	-1041.26099	
2628	26.270	-818.19055	-55.69856	-653.35187	754.41425	-50.44328	-646.59229	-735.34552	46.61422	479.95975	682.04437	58.78895	565.58624	-34.75063	649.59021	-1041.48938	
2629	26.280	-817.39215	-55.56298	-653.40918	755.02911	-50.40735	-646.56189	-734.76324	46.61696	479.87430	682.68964	58.73207	565.60571	-34.16298	649.52655	-1041.60327	
2630	26.290	-816.53046	-55.85598	-653.46729	755.82739	-50.52451	-646.68005	-734.04553	46.66086	479.84949	683.18713	58.90976	565.68982	-33.57040	649.53687	-1041.69153	
2631	26.300	-815.81927	-55.53718	-653.52808	756.58386	-50.53323	-646.71838	-733.11133	46.79113	479.88379	684.12634	59.02718	565.68445	-32.52334	649.55927	-1041.68323	
2632	26.310	-815.08014	-55.72783	-653.36176	757.38867	-50.63371	-646.54205	-732.43195	46.79450	479.82449	685.07922	58.95654	565.66467	-31.35781	649.66785	-1041.62659	
2633	26.320	-814.37097	-55.46893	-653.37103	758.08319	-50.52982	-646.52454	-731.82153	46.62745	479.90237	685.78735	58.73232	565.70416	-30.90798	649.67889	-1041.45288	
2634	26.330	-813.54474	-55.31985	-653.41095	758.82190	-50.39810	-646.70721	-730.89648	46.46735	479.98105	686.43781	58.61273	565.75232	-30.35606	649.77643	-1041.19580	
2635	26.340	-812.78528	-55.20828	-653.41254	759.72717	-50.06516	-646.63849	-730.06671	46.28949	479.89056	687.21796	58.42632	565.76880	-29.59772	650.10590	-1040.94312	
2636	26.350	-811.96692	-54.80539	-653.27618	760.54034	-49.76436	-646.46381	-729.19104	46.24496	480.08795	688.15051	58.33337	565.98547	-28.59719	650.59576	-1040.64099	
2637	26.360	-811.12598	-54.14837	-653.32629	761.43896	-49.61216	-646.36224	-728.39404	45.98993	480.23148	689.03064	58.23104	566.12762	-27.73389	650.99792	-1040.31836	
2638	26.370	-810.21765	-54.07576	-653.25403	762.08252	-49.27091	-646.43127	-727.59369	45.83800	480.23761	689.74731	57.98186	566.15143	-26.95951	651.57257	-1039.82166	
2639	26.380	-809.16235	-53.87724	-653.35095	763.13885	-48.77832	-646.50031	-726.68176	45.65599	480.36389	690.76392	57.53343	566.16187	-26.03231	652.20166	-1039.37061	
2640	26.390	-808.67383	-53.30006	-653.17358	763.97162	-48.37455	-646.34515	-725.73529	45.22506	480.45212	691.64288	57.16385	566.31982	-25.29260	652.63879	-1038.97559	
2641	26.400	-807.66907	-52.89349	-653.07971	764.77484	-48.01144	-646.23566	-724.77899	44.83539	480.38602	692.36230	56.80281	566.33551	-24.19987	653.64038	-1038.27344	
2642	26.410	-806.74280	-52.41647	-652.91138	765.64911	-47.37965	-646.56232	-723.68658	44.48921	480.63339	693.28601	56.57245	566.43378	-23.37977	654.30780	-1037.70837	
2643	26.420	-805.72864	-51.80256	-653.00769	766.53522	-46.85714	-646.09705	-722.93018	44.34346	480.69653	694.59131	56.27605	566.71442	-22.65677	655.03198	-1037.12097	
2644	26.430	-805.13666	-51.16430	-652.83203	767.66913	-46.47603	-645.94354	-722.08362	44.03419	480.88431	695.26025	55.69629	566.94250	-21.75794	656.02460	-1036.25146	
2645	26.440	-804.01312	-50.82531	-652.87518	768.49969	-45.88379	-645.93591	-721.12451	43.55974	480.99481	696.04785	55.20821	567.19452	-20.54873	656.76605	-1035.65063	
2646	26.450	-802.74268	-50.39977	-652.67188	769.55328	-45.47487	-645.95410	-720.12268	43.11204	481.23312	697.25946	54.82284	567.38916	-19.70247	657.69458	-1034.77539	
2647	26.460	-801.94690	-49.59600	-652.53381	770.56219	-44.74974	-645.77820	-719.11639	42.62097	481.39813	698.18823	54.53254	567.47498	-18.67775	658.62659	-1034.05127	
2648	26.470	-801.11090	-48.79852	-652.52472	771.40967	-43.92511	-645.71570	-718.00781	42.24929	481.74802	699.22565	54.02480	567.61963	-17.72010	659.76917	-1033.10620	
2649	26.480	-799.98749	-48.22901	-652.47998	772.34149	-43.46025	-645.65839	-717.04968	41.98055	481.95676	700.26807	53.52201	567.79425	-16.56491	660.75677	-1032.10144	
2650	26.490	-798.98486	-47.57728	-652.23895	773.59369	-42.56485	-645.44427	-716.09845	41.34732	481.94461	701.14771	52.78594	568.02789	-15.66878	661.81421	-1031.19092	
2651	26.500	-798.03992	-46.82317	-652.17816	774.58716	-42.03404	-645.22943	-715.07324	40.97002	482.31616	701.98596	52.18826	568.29388	-14.86138	663.12994	-1030.03613	
2652	26.510	-797.00317	-46.04903	-652.06409	775.40375	-41.27284	-645.11572	-714.14856	40.55784	482.53082	703.08813	51.52655	568.45978	-14.02046	664.40497	-1029.19275	
2653	26.520	-795.96796	-45.05182	-652.00500	776.59338	-40.15330	-645.30927	-713.09259	39.93142	482.83746	704.26422	51.02225	568.67865	-12.67213	665.50079	-1027.98413	
2654	26.530	-795.00696	-44.21875	-651.69092	777.33289	-39.55257	-644.92487	-712.12054	39.40680	482.97687	705.36700	50.32212	569.05750	-11.83991	667.20313	-1027.17017	
2655	26.540	-793.76776	-43.26625	-651.61737	778.86279	-38.30349	-644.88373	-711.05066	38.74798	483.31577	706.26575	49.64891	569.28302	-10.44724	668.45508	-1025.73108	
2656	26.550	-792.54108	-42.71717	-651.45892	779.48376	-37.63062	-644.55347	-709.97473	38.04824	483.43460	707.32257	48.87583	569.67694	-9.84430	669.89722	-1024.68213	
2657	26.560	-791.82715	-41.47308	-651.25922	780.84668	-36.44210	-644.43036	-708.86658	37.43615	483.75168	708.33252	48.06022	570.03162	-8.42689	671.58862	-1023.43781	
2658	26.570	-790.79590	-40.08610	-651.12085	781.77081	-35.49998	-644.22241	-707.69098	36.86120	484.10397	709.39276	47.17929	570.18243	-7.25745	673.04254	-1022.17596	
2659	26.580	-789.43604	-39.51456	-650.95129	782.78387	-34.57732	-644.33295	-706.68567	36.22852	484.27307	710.64075	46.40521	570.41589	-6.44434	674.61249	-1020.97351	
2660	26.590	-788.42395	-38.36465	-650.78552	784.13129	-33.41754	-643.93787	-705.59729	35.59244	484.66296	711.59515	45.76192	570.73077	-5.40107	676.24072	-1019.57397	
2661	26.600	-787.45038	-37.13462	-650.59125	785.27289	-32.49367	-643.64014	-704.36224	34.65219	485.16702	712.63702	44.81968	571.10669	-4.31970	677.91888	-1018.33252	
2662	26.610	-786.15051	-36.35593	-650.39203	786.13379	-31.46631	-643.55469	-703.54358	33.76542	485.25006	713.85901	44.04765	571.42853	-2.88153	679.53455	-1016.68500	
2663	26.620	-784.80920	-35.44659	-650.18958	787.42358	-30.27980	-643.43719	-702.28821	33.23413	485.77325	714.76624	43.03691	571.64520	-2.18603	681.09082	-1015.34155	
2664	26.630	-784.00165	-33.81392	-649.91357	788.60907	-28.96245	-643.29456	-701.21301	32.51282	485.94003	715.94470	41.98113	571.92810	-1.10514	682.95526	-1014.04498	
2665	26.640	-782.83881	-32.62578	-649.83496	789.40680	-27.99050	-642.95068	-699.97760	31.78859	486.25891	716.98590	41.16264	572.08813	0.28597	684.77490	-1012.21875	
2666	26.650	-781.55988	-31.82077	-649.57587	790.97931	-26.60476	-642.76917	-698.81879	31.08279	486.62402	718.26508	40.17274	572.49927	1.43951	686.74957	-1010.80975	
2667	26.660	-780.59851	-30.36205	-649.33478	791.71851	-25.58246	-642.50665	-697.81635	30.20222	486.82748	719.14093	39.09603	572.90723	2.37831	688.67444	-1009.08441	
2668	26.670	-779.48492	-29.15435	-649.04169	793.02307	-24.12880	-642.25525	-696.69006	29.30324	487.13107	720.13049	38.04580	573.19818	3.45147	690.57843	-1007.39087	
2669	26.680	-778.46539	-27.70863	-648.89819	793.96838	-22.94434	-642.16492	-695.59912	28.44538	487.44696	721.15057	37.01519	573.47668	4.49559	692.50043	-1005.88611	
2670	26.690	-777.39435	-26.28471	-648.53015	794.99500	-21.70164	-641.89954	-694.35968	27.68752	487.83707	722.21033	36.08427	574.00995	5.63611	694.64673	-1004.08136	
2671	26.700	-775.91388	-25.26157	-648.38788	796.32123	-20.22153	-641.45642	-693.21130	26.77887	488.25778	723.79297	35.04860	574.50739	6.98276	696.64905	-1002.27954	
2672	26.710	-774.83679	-23.89194	-648.10596	797.30560	-18.89037	-641.50391	-692.16260	25.88477	488.72708	724.40289	33.93939	574.92639	7.82545	698.77472	-1000.19604	
2673	26.720	-773.88397	-22.43482	-647.89734	798.35657	-17.42125	-641.17163	-690.85773	24.84883	488.89404	725.49829	32.83642	575.31482	8.94626	700.79730	-998.61353	
